<?xml version="1.0" encoding="UTF-8"?>
<svg id="Capa_2" data-name="Capa 2" xmlns="http://www.w3.org/2000/svg" viewBox="0 0 317.63 77.6">
  <defs>
    <style>
      .cls-1 {
        fill: #fff;
        stroke-width: 0px;
      }
    </style>
  </defs>
  <g id="Capa_1-2" data-name="Capa 1">
    <g>
      <g>
        <path class="cls-1" d="M77.59,38.8c0-1.66-.12-3.29-.32-4.89-.04-.41-.15-1.39-.4-2.64-.3-1.51-.7-2.98-1.17-4.42h0s0,0,0,0h-20.69c.38.9.52,1.9.38,2.92-.02.11-.05.21-.07.32-.11,1.06-.58,2.07-1.61,2.93-.1.08-.2.14-.3.22-.52.43-1.12.77-1.77.99-1.39.46-2.82.37-4.14-.28-.1-.04-.2-.08-.29-.13l-6.23-3.51c-.27-.15-.57-.21-.84-.18-.14.04-.27.09-.42.15-.15.07-.3.15-.46.24-6.19,3.61-11.97,7.91-17.84,12.36l-2.46,1.87c-.23.22-.45.48-.61.75-.79,1.37.13,2.94,1.7,2.8.7-.06,1.42-.42,2.02-.81,1.34-.88,2.66-1.8,3.97-2.71l3.41-2.35s.15-.09.3-.09c.3,0,.55.25.55.55s-.21.43-.21.43l-4.4,3.07h0c-.71.51-1.42,1.02-2.13,1.54-1.18.85-1.22,1.88-.17,2.88.83.79,1.65.61,2.46,0,2.22-1.66,4.42-3.37,6.68-4.98.03-.02.8-.56.8-.56,0,0,.18-.11.36-.11.36,0,.66.28.67.64,0,.36-.23.52-.23.52,0,0-.72.56-.74.57-1.76,1.38-3.6,2.66-5.38,4.01-1.06.8-1.1,1.67-.17,2.47.95.82,1.92.62,2.83-.05,1.18-.86,5.37-3.9,5.37-3.9,0,0,.23-.17.54-.15.44.03.62.44.62.72s-.23.43-.23.43c0,0-3.25,2.3-3.75,2.65-.64.46-1.42.87-.84,1.87.61,1.05,1.8,1.48,2.72.89.12-.08.51-.29,1.11-.6-.19-1.23.34-2.52,1.46-3.24.54-.34,1.16-.52,1.78-.51,0-.04,0-.09.02-.13.21-.93.76-1.72,1.56-2.23.63-.4,1.36-.58,2.09-.54.01-.1.01-.19.03-.29.22-1.01.83-1.87,1.69-2.43.75-.48,1.6-.65,2.43-.57.02-.16.04-.33.08-.49.24-1.1.9-2.03,1.84-2.64.94-.6,2.07-.8,3.16-.56,1.1.24,2.03.9,2.64,1.84l1.76,2.75h14.21c-3.39,14.78-16.77,25.63-32.17,25.63-6.2,0-12.14-1.7-17.33-4.92l3.51-3.58-15.68-4.03,4.35,15.59,3.67-3.75c6.37,4.25,13.75,6.49,21.48,6.49,18.55,0,34.61-13.39,38.09-31.43h.01c.02-.09.03-.19.05-.29,0,0,0-.01,0-.02.2-1.02.36-2.31.36-2.31h-.01c.19-1.56.31-3.14.31-4.76Z"/>
        <path class="cls-1" d="M51.45,27.43c-.54-.22-1.04-.52-1.49-.89l-5.3-4.37s0,0,0,0c-.05-.03-.09-.05-.13-.08-1.21-.63-2.01-.9-2.51-1.01,0,0-1.3-.36-3.25.49-3.87,1.69-7.69,3.52-11.53,5.28l-19.09-.21c.44-1.15.95-2.25,1.5-3.31C15.25,12.85,26.35,5.8,38.78,5.8c5.77,0,11.34,1.49,16.29,4.3l-3.39,3.74,15.82,3.41-4.96-15.41-3.5,3.87C52.96,1.97,45.99,0,38.78,0,23.06,0,9.14,9.6,3.14,23.51h0s-.02.06-.03.08c-.24.56-.46,1.12-.68,1.7,0,0,0,0,0,0-.72,1.92-1.29,3.91-1.7,5.97-.25,1.26-.36,2.23-.4,2.64-.2,1.6-.32,3.23-.32,4.89,0,2.52.25,4.99.71,7.38h13.18l6.36-4.85c5.83-4.42,11.69-8.8,18.03-12.5.23-.14.46-.26.69-.36.93-.44,2.02-.39,2.92.12l6.27,3.54h0c.75.4,1.65.59,2.63.33s1.78-.97,2.27-1.86c1.17-2.11-.25-2.61-1.61-3.17Z"/>
        <g>
          <path class="cls-1" d="M53.62,44.3c-.37-.58-.94-.98-1.61-1.13-.19-.04-.38-.06-.56-.06-.48,0-.96.14-1.37.4-.58.37-.98.94-1.13,1.61-.15.67-.03,1.36.34,1.94l1.84,2.88c.76,1.2,2.36,1.55,3.55.79.58-.37.98-.94,1.13-1.61.15-.67.03-1.36-.34-1.94l-1.84-2.88Z"/>
          <path class="cls-1" d="M44.74,48.63c-.13.59-.02,1.19.3,1.69l1.62,2.54c.32.5.82.85,1.41.98.59.13,1.19.02,1.69-.3.5-.32.85-.82.98-1.41.13-.59.02-1.19-.3-1.69l-1.62-2.54c-.43-.67-1.15-1.04-1.9-1.04-.41,0-.83.11-1.2.35-.5.32-.85.82-.98,1.41Z"/>
          <path class="cls-1" d="M44.57,51.07c-.28-.43-.71-.73-1.21-.85-.14-.03-.28-.05-.42-.05-.36,0-.72.1-1.03.3-.9.57-1.17,1.77-.59,2.67l1.41,2.21c.28.43.71.73,1.21.85.51.11,1.02.02,1.46-.26.43-.28.73-.71.85-1.21s.02-1.02-.26-1.46l-1.41-2.21Z"/>
          <path class="cls-1" d="M37.82,54.37c-.09.42-.02.86.21,1.22l1.2,1.89c.48.75,1.49.98,2.24.5.36-.23.62-.59.71-1.02.09-.42.02-.86-.21-1.22l-1.2-1.89c-.31-.48-.83-.75-1.37-.75-.3,0-.6.08-.87.25-.36.23-.62.59-.71,1.02Z"/>
        </g>
      </g>
      <g>
        <path class="cls-1" d="M101.31,58.86c.07.19.21.35.4.51.19.15.46.29.8.42.34.12.78.24,1.32.35,1.08.24,1.88.57,2.39,1,.51.43.77,1.01.77,1.76,0,.42-.08.8-.25,1.14-.17.34-.39.63-.68.88-.29.24-.64.43-1.04.56-.41.13-.85.19-1.33.19-.78,0-1.49-.13-2.13-.38-.64-.25-1.26-.64-1.84-1.16l.68-.8c.51.46,1.02.81,1.54,1.03.52.23,1.11.34,1.79.34s1.18-.15,1.58-.46.59-.71.59-1.21c0-.23-.04-.44-.11-.62-.07-.18-.2-.34-.39-.49-.19-.15-.44-.28-.77-.4-.33-.12-.75-.24-1.26-.35-.56-.12-1.04-.26-1.45-.42-.41-.16-.75-.35-1.02-.57-.27-.22-.47-.48-.6-.78-.13-.3-.19-.65-.19-1.06s.08-.75.24-1.07c.16-.32.38-.6.67-.84.29-.24.62-.42,1.01-.56.39-.13.81-.2,1.28-.2.71,0,1.33.1,1.87.29.53.2,1.05.49,1.55.89l-.64.85c-.45-.37-.91-.64-1.37-.8-.46-.17-.94-.25-1.44-.25-.31,0-.6.04-.85.13-.25.08-.47.19-.65.33-.18.14-.32.31-.42.5-.1.2-.15.4-.15.63s.04.44.11.62Z"/>
        <path class="cls-1" d="M116.26,56.82h-5.92v3.32h5.3v1h-5.3v3.4h5.99v1h-7.09v-9.71h7.02v1Z"/>
        <path class="cls-1" d="M125.22,65.53l-2.82-3.77h-2.78v3.77h-1.1v-9.71h4.18c.54,0,1.02.07,1.45.21.43.14.8.34,1.1.59.3.25.54.56.71.92.17.36.25.75.25,1.19,0,.41-.06.77-.19,1.09s-.31.6-.55.83c-.24.24-.52.43-.84.59-.32.16-.67.27-1.05.33l2.98,3.97h-1.35ZM124.47,57.34c-.44-.34-1.05-.51-1.84-.51h-3v3.96h2.99c.36,0,.7-.05,1-.14.31-.09.57-.23.79-.4.22-.17.4-.38.52-.63.12-.25.19-.53.19-.85,0-.61-.22-1.09-.65-1.43Z"/>
        <path class="cls-1" d="M135.6,55.82h1.18l-4.18,9.78h-.97l-4.18-9.78h1.22l3.46,8.37,3.47-8.37Z"/>
        <path class="cls-1" d="M139.89,55.82v9.71h-1.1v-9.71h1.1Z"/>
        <path class="cls-1" d="M150.27,64.69c-.27.21-.57.39-.88.53-.32.15-.65.26-1.01.35-.36.08-.76.12-1.21.12-.7,0-1.35-.13-1.94-.39s-1.11-.61-1.54-1.06c-.43-.45-.77-.98-1.02-1.59-.25-.61-.37-1.27-.37-1.97s.12-1.35.37-1.96.58-1.15,1.02-1.6c.43-.46.95-.82,1.55-1.08s1.26-.4,1.97-.4c.44,0,.84.04,1.2.11.36.07.69.18.99.31.3.13.59.3.85.49.26.19.51.4.75.63l-.75.8c-.42-.39-.86-.71-1.34-.96-.48-.25-1.05-.37-1.71-.37-.54,0-1.03.1-1.49.3-.46.2-.86.49-1.19.85-.34.36-.6.78-.79,1.27-.19.49-.29,1.01-.29,1.58s.09,1.09.29,1.58c.19.49.45.92.79,1.28.34.36.74.64,1.19.85s.96.31,1.49.31c.67,0,1.24-.12,1.72-.37.48-.25.95-.59,1.42-1.03l.72.71c-.25.26-.51.49-.78.7Z"/>
        <path class="cls-1" d="M154.16,55.82v9.71h-1.1v-9.71h1.1Z"/>
        <path class="cls-1" d="M166.12,62.58c-.24.61-.58,1.14-1.01,1.6-.43.46-.96.83-1.57,1.1s-1.29.41-2.03.41-1.41-.13-2.02-.4c-.61-.27-1.13-.63-1.56-1.09-.44-.46-.77-.99-1.01-1.6-.24-.61-.35-1.25-.35-1.92s.12-1.32.36-1.92c.24-.61.58-1.14,1.01-1.6.43-.46.96-.83,1.57-1.1.61-.27,1.29-.41,2.03-.41s1.41.13,2.02.4c.61.27,1.13.63,1.56,1.09.44.46.77.99,1.01,1.6.24.61.35,1.25.35,1.92s-.12,1.32-.36,1.92ZM165.06,59.12c-.19-.49-.46-.92-.8-1.28-.34-.36-.75-.65-1.21-.86-.47-.21-.98-.32-1.53-.32s-1.07.1-1.53.31c-.47.21-.87.49-1.2.85-.33.36-.59.78-.78,1.27-.19.49-.29,1.01-.29,1.56s.09,1.08.29,1.57c.19.49.46.92.8,1.28.34.36.75.65,1.21.86.47.21.98.32,1.53.32s1.07-.1,1.53-.31c.47-.21.87-.49,1.2-.85.33-.36.59-.78.78-1.27.19-.49.28-1.01.28-1.56s-.09-1.08-.28-1.57Z"/>
        <path class="cls-1" d="M169.69,58.86c.07.19.21.35.4.51.19.15.46.29.8.42.34.12.78.24,1.32.35,1.08.24,1.88.57,2.39,1,.51.43.77,1.01.77,1.76,0,.42-.08.8-.25,1.14-.17.34-.39.63-.68.88-.29.24-.64.43-1.04.56-.41.13-.85.19-1.33.19-.78,0-1.49-.13-2.13-.38-.64-.25-1.26-.64-1.84-1.16l.68-.8c.51.46,1.02.81,1.54,1.03.52.23,1.11.34,1.79.34s1.18-.15,1.58-.46.59-.71.59-1.21c0-.23-.04-.44-.11-.62-.07-.18-.2-.34-.39-.49-.19-.15-.44-.28-.77-.4-.33-.12-.75-.24-1.26-.35-.56-.12-1.04-.26-1.45-.42-.41-.16-.75-.35-1.02-.57-.27-.22-.47-.48-.6-.78-.13-.3-.19-.65-.19-1.06s.08-.75.24-1.07c.16-.32.38-.6.67-.84.29-.24.62-.42,1.01-.56.39-.13.81-.2,1.28-.2.71,0,1.33.1,1.87.29.53.2,1.05.49,1.55.89l-.64.85c-.45-.37-.91-.64-1.37-.8-.46-.17-.94-.25-1.44-.25-.31,0-.6.04-.85.13-.25.08-.47.19-.65.33-.18.14-.32.31-.42.5-.1.2-.15.4-.15.63s.04.44.11.62Z"/>
        <path class="cls-1" d="M189.32,64.69c-.27.21-.57.39-.88.53-.32.15-.65.26-1.01.35-.36.08-.76.12-1.21.12-.7,0-1.35-.13-1.94-.39s-1.11-.61-1.54-1.06c-.43-.45-.77-.98-1.02-1.59-.25-.61-.37-1.27-.37-1.97s.12-1.35.37-1.96.58-1.15,1.02-1.6c.43-.46.95-.82,1.55-1.08s1.26-.4,1.97-.4c.44,0,.84.04,1.2.11.36.07.69.18.99.31.3.13.59.3.85.49.26.19.51.4.75.63l-.75.8c-.42-.39-.86-.71-1.34-.96-.48-.25-1.05-.37-1.71-.37-.54,0-1.03.1-1.49.3-.46.2-.86.49-1.19.85-.34.36-.6.78-.79,1.27-.19.49-.29,1.01-.29,1.58s.09,1.09.29,1.58c.19.49.45.92.79,1.28.34.36.74.64,1.19.85s.96.31,1.49.31c.67,0,1.24-.12,1.72-.37.48-.25.95-.59,1.42-1.03l.72.71c-.25.26-.51.49-.78.7Z"/>
        <path class="cls-1" d="M200.85,62.58c-.24.61-.58,1.14-1.01,1.6-.43.46-.96.83-1.57,1.1s-1.29.41-2.03.41-1.41-.13-2.02-.4c-.61-.27-1.13-.63-1.56-1.09-.44-.46-.77-.99-1.01-1.6-.24-.61-.35-1.25-.35-1.92s.12-1.32.36-1.92c.24-.61.58-1.14,1.01-1.6.43-.46.96-.83,1.57-1.1.61-.27,1.29-.41,2.03-.41s1.41.13,2.02.4c.61.27,1.13.63,1.56,1.09.44.46.77.99,1.01,1.6.24.61.35,1.25.35,1.92s-.12,1.32-.36,1.92ZM199.79,59.12c-.19-.49-.46-.92-.8-1.28-.34-.36-.75-.65-1.21-.86-.47-.21-.98-.32-1.53-.32s-1.07.1-1.53.31c-.47.21-.87.49-1.2.85-.33.36-.59.78-.78,1.27-.19.49-.29,1.01-.29,1.56s.09,1.08.29,1.57c.19.49.46.92.8,1.28.34.36.75.65,1.21.86.47.21.98.32,1.53.32s1.07-.1,1.53-.31c.47-.21.87-.49,1.2-.85.33-.36.59-.78.78-1.27.19-.49.28-1.01.28-1.56s-.09-1.08-.28-1.57Z"/>
        <path class="cls-1" d="M208.19,62.87h-.06l-3.54-5.19v7.85h-1.07v-9.71h1.11l3.54,5.3,3.54-5.3h1.11v9.71h-1.1v-7.87l-3.54,5.2Z"/>
        <path class="cls-1" d="M222.54,60.3c-.2.4-.48.73-.83,1-.35.27-.75.47-1.21.6-.46.13-.95.2-1.47.2h-2.36v3.43h-1.1v-9.71h3.63c.55,0,1.04.07,1.49.21.45.14.83.35,1.15.61s.56.59.74.97.26.82.26,1.3c0,.53-.1.99-.31,1.39ZM221.03,57.36c-.48-.36-1.11-.53-1.9-.53h-2.46v4.27h2.41c.4,0,.76-.05,1.09-.15s.61-.25.85-.44c.24-.19.42-.42.54-.68s.19-.56.19-.88c0-.7-.24-1.23-.72-1.59Z"/>
        <path class="cls-1" d="M232.92,65.53h-1.18l-1.14-2.57h-5.29l-1.15,2.57h-1.12l4.43-9.78h1.03l4.43,9.78ZM227.97,57.04l-2.22,4.95h4.43l-2.21-4.95Z"/>
        <path class="cls-1" d="M241.52,65.53l-2.82-3.77h-2.78v3.77h-1.1v-9.71h4.18c.54,0,1.02.07,1.45.21.43.14.8.34,1.1.59.3.25.54.56.71.92.17.36.25.75.25,1.19,0,.41-.06.77-.19,1.09s-.31.6-.55.83c-.24.24-.52.43-.84.59-.32.16-.67.27-1.05.33l2.98,3.97h-1.35ZM240.77,57.34c-.44-.34-1.05-.51-1.84-.51h-3v3.96h2.99c.36,0,.7-.05,1-.14.31-.09.57-.23.79-.4.22-.17.4-.38.52-.63.12-.25.19-.53.19-.85,0-.61-.22-1.09-.65-1.43Z"/>
        <path class="cls-1" d="M248.43,65.53h-1.1v-8.7h-3.26v-1.01h7.62v1.01h-3.26v8.7Z"/>
        <path class="cls-1" d="M254.95,55.82v9.71h-1.1v-9.71h1.1Z"/>
        <path class="cls-1" d="M265.96,62.58c-.25.6-.6,1.11-1.06,1.55s-1,.78-1.64,1.03c-.63.25-1.33.38-2.09.38h-3.37v-9.71h3.37c.76,0,1.46.12,2.09.37.63.25,1.18.59,1.64,1.02s.81.95,1.06,1.54.38,1.23.38,1.92-.12,1.33-.38,1.92ZM264.91,59.17c-.19-.47-.46-.88-.8-1.23-.35-.35-.77-.62-1.27-.82-.5-.2-1.05-.3-1.67-.3h-2.28v7.69h2.28c.61,0,1.17-.1,1.67-.29.5-.19.92-.46,1.27-.81.35-.35.62-.75.8-1.21s.29-.97.29-1.51-.1-1.04-.29-1.51Z"/>
        <path class="cls-1" d="M277.76,62.58c-.24.61-.58,1.14-1.01,1.6-.43.46-.96.83-1.57,1.1s-1.29.41-2.03.41-1.41-.13-2.02-.4c-.61-.27-1.13-.63-1.56-1.09-.44-.46-.77-.99-1.01-1.6-.24-.61-.35-1.25-.35-1.92s.12-1.32.36-1.92c.24-.61.58-1.14,1.01-1.6.43-.46.96-.83,1.57-1.1.61-.27,1.29-.41,2.03-.41s1.41.13,2.02.4c.61.27,1.13.63,1.56,1.09.44.46.77.99,1.01,1.6.24.61.35,1.25.35,1.92s-.12,1.32-.36,1.92ZM276.7,59.12c-.19-.49-.46-.92-.8-1.28-.34-.36-.75-.65-1.21-.86-.47-.21-.98-.32-1.53-.32s-1.07.1-1.53.31c-.47.21-.87.49-1.2.85-.33.36-.59.78-.78,1.27-.19.49-.29,1.01-.29,1.56s.09,1.08.29,1.57c.19.49.46.92.8,1.28.34.36.75.65,1.21.86.47.21.98.32,1.53.32s1.07-.1,1.53-.31c.47-.21.87-.49,1.2-.85.33-.36.59-.78.78-1.27.19-.49.28-1.01.28-1.56s-.09-1.08-.28-1.57Z"/>
        <path class="cls-1" d="M281.33,58.86c.07.19.21.35.4.51.19.15.46.29.8.42.34.12.78.24,1.32.35,1.08.24,1.88.57,2.39,1,.51.43.77,1.01.77,1.76,0,.42-.08.8-.25,1.14-.17.34-.39.63-.68.88-.29.24-.64.43-1.04.56-.41.13-.85.19-1.33.19-.78,0-1.49-.13-2.13-.38-.64-.25-1.26-.64-1.84-1.16l.68-.8c.51.46,1.02.81,1.54,1.03.52.23,1.11.34,1.79.34s1.18-.15,1.58-.46.59-.71.59-1.21c0-.23-.04-.44-.11-.62-.07-.18-.2-.34-.39-.49-.19-.15-.44-.28-.77-.4-.33-.12-.75-.24-1.26-.35-.56-.12-1.04-.26-1.45-.42-.41-.16-.75-.35-1.02-.57-.27-.22-.47-.48-.6-.78-.13-.3-.19-.65-.19-1.06s.08-.75.24-1.07c.16-.32.38-.6.67-.84.29-.24.62-.42,1.01-.56.39-.13.81-.2,1.28-.2.71,0,1.33.1,1.87.29.53.2,1.05.49,1.55.89l-.64.85c-.45-.37-.91-.64-1.37-.8-.46-.17-.94-.25-1.44-.25-.31,0-.6.04-.85.13-.25.08-.47.19-.65.33-.18.14-.32.31-.42.5-.1.2-.15.4-.15.63s.04.44.11.62Z"/>
        <path class="cls-1" d="M294.37,58.86c.07.19.21.35.4.51.19.15.46.29.8.42.34.12.78.24,1.32.35,1.08.24,1.88.57,2.39,1,.51.43.77,1.01.77,1.76,0,.42-.08.8-.25,1.14-.17.34-.39.63-.68.88-.29.24-.64.43-1.04.56-.41.13-.85.19-1.33.19-.78,0-1.49-.13-2.13-.38-.64-.25-1.26-.64-1.84-1.16l.68-.8c.51.46,1.02.81,1.54,1.03.52.23,1.11.34,1.79.34s1.18-.15,1.58-.46.59-.71.59-1.21c0-.23-.04-.44-.11-.62-.07-.18-.2-.34-.39-.49-.19-.15-.44-.28-.77-.4-.33-.12-.75-.24-1.26-.35-.56-.12-1.04-.26-1.45-.42-.41-.16-.75-.35-1.02-.57-.27-.22-.47-.48-.6-.78-.13-.3-.19-.65-.19-1.06s.08-.75.24-1.07c.16-.32.38-.6.67-.84.29-.24.62-.42,1.01-.56.39-.13.81-.2,1.28-.2.71,0,1.33.1,1.87.29.53.2,1.05.49,1.55.89l-.64.85c-.45-.37-.91-.64-1.37-.8-.46-.17-.94-.25-1.44-.25-.31,0-.6.04-.85.13-.25.08-.47.19-.65.33-.18.14-.32.31-.42.5-.1.2-.15.4-.15.63s.04.44.11.62Z"/>
        <path class="cls-1" d="M301.99,65.53v-1.46h1.28v1.46h-1.28Z"/>
        <path class="cls-1" d="M314.74,65.53h-1.18l-1.14-2.57h-5.29l-1.15,2.57h-1.12l4.43-9.78h1.03l4.43,9.78ZM309.79,57.04l-2.22,4.95h4.43l-2.21-4.95Z"/>
        <path class="cls-1" d="M316.35,65.53v-1.46h1.28v1.46h-1.28Z"/>
      </g>
      <g>
        <path class="cls-1" d="M112.9,41.15c-4.97,0-9.98-1.73-13.91-5.25l4.26-5.11c2.95,2.44,6.04,3.98,9.79,3.98,2.95,0,4.73-1.17,4.73-3.09v-.09c0-1.83-1.12-2.76-6.6-4.17-6.61-1.69-10.87-3.51-10.87-10.02v-.09c0-5.95,4.78-9.88,11.48-9.88,4.78,0,8.85,1.5,12.18,4.17l-3.75,5.43c-2.9-2.01-5.76-3.23-8.53-3.23s-4.22,1.26-4.22,2.86v.09c0,2.15,1.41,2.86,7.07,4.31,6.65,1.73,10.4,4.12,10.4,9.84v.09c0,6.51-4.97,10.17-12.04,10.17Z"/>
        <path class="cls-1" d="M131.21,40.68V7.89h24.73v6.42h-17.57v6.65h15.46v6.42h-15.46v6.89h17.8v6.42h-24.97Z"/>
        <path class="cls-1" d="M182.5,40.68l-7.03-10.49h-5.67v10.49h-7.21V7.89h14.99c7.73,0,12.37,4.08,12.37,10.82v.09c0,5.29-2.86,8.62-7.03,10.17l8.01,11.71h-8.43ZM182.64,19.08c0-3.09-2.16-4.68-5.67-4.68h-7.17v9.42h7.31c3.51,0,5.53-1.87,5.53-4.64v-.09Z"/>
        <path class="cls-1" d="M212.33,40.91h-6.37l-13.26-33.03h7.96l8.57,23.09,8.57-23.09h7.78l-13.26,33.03Z"/>
        <path class="cls-1" d="M230.97,40.68V7.89h7.21v32.79h-7.21Z"/>
        <path class="cls-1" d="M270.79,40.68l-3-7.35h-13.87l-3,7.35h-7.35l14.05-33.03h6.65l14.05,33.03h-7.54ZM260.86,16.32l-4.36,10.63h8.71l-4.36-10.63Z"/>
        <path class="cls-1" d="M309.01,40.68v-21.41l-9.23,14.01h-.19l-9.13-13.87v21.27h-7.07V7.89h7.78l8.62,13.87,8.62-13.87h7.78v32.79h-7.17Z"/>
      </g>
    </g>
  </g>
</svg>