<?xml version="1.0" encoding="UTF-8"?>
<svg id="Capa_2" data-name="Capa 2" xmlns="http://www.w3.org/2000/svg" viewBox="0 0 32.17 18.83">
  <defs>
    <style>
      .cls-1 {
        fill: #0065a1;
      }

      .cls-1, .cls-2, .cls-3, .cls-4 {
        stroke-width: 0px;
      }

      .cls-2 {
        fill: #00c1de;
      }

      .cls-3 {
        fill: #fff;
      }

      .cls-4 {
        fill: #6aa6da;
      }
    </style>
  </defs>
  <g id="Capa_1-2" data-name="Capa 1">
    <g>
      <g>
        <path class="cls-2" d="M3.83,17.94c-.09.19-.22.36-.38.49-.16.13-.35.23-.58.3-.22.07-.47.1-.75.1-.38,0-.76-.07-1.13-.2s-.7-.33-1.01-.61l.65-.78c.23.19.47.34.71.45.24.11.51.17.79.17.23,0,.41-.04.53-.13.13-.08.19-.2.19-.35h0c0-.09-.01-.15-.04-.2-.03-.05-.08-.11-.15-.15s-.18-.1-.31-.14c-.13-.05-.3-.1-.51-.15-.25-.06-.48-.13-.69-.21-.21-.08-.38-.17-.53-.28-.14-.11-.26-.25-.33-.42s-.12-.38-.12-.62H.19c0-.24.04-.45.13-.64s.21-.34.36-.48c.15-.13.34-.24.55-.31.21-.07.45-.11.71-.11.37,0,.71.06,1.02.17.31.11.59.27.85.47l-.57.83c-.23-.15-.45-.27-.66-.36-.22-.09-.43-.13-.65-.13s-.38.04-.48.13c-.11.08-.16.19-.16.31h0c0,.1.02.17.05.23.03.06.09.11.17.16.08.05.19.09.33.14.14.04.32.09.54.15.25.07.48.14.68.23.2.08.37.18.5.3.14.12.24.25.31.41.07.16.1.35.1.57h0c0,.26-.05.48-.14.68Z"/>
        <path class="cls-2" d="M4.79,18.76v-5.1h3.78v1h-2.69v1.03h2.37v1h-2.37v1.07h2.73v1h-3.82Z"/>
        <path class="cls-2" d="M12.43,18.76l-1.08-1.63h-.87v1.63h-1.11v-5.1h2.3c.6,0,1.06.15,1.4.44.33.3.5.71.5,1.24h0c0,.43-.1.76-.3,1.02-.2.26-.46.45-.78.57l1.23,1.82h-1.29ZM12.45,15.4c0-.24-.08-.42-.23-.55-.15-.12-.37-.18-.64-.18h-1.1v1.46h1.12c.27,0,.48-.07.63-.2.15-.13.22-.31.22-.52h0Z"/>
        <path class="cls-2" d="M16.92,18.79h-.98l-2.03-5.13h1.22l1.31,3.59,1.31-3.59h1.19l-2.03,5.13Z"/>
        <path class="cls-2" d="M19.56,18.76v-5.1h1.11v5.1h-1.11Z"/>
        <path class="cls-2" d="M25.44,18.76l-.46-1.14h-2.13l-.46,1.14h-1.13l2.15-5.1h1.02l2.15,5.1h-1.16ZM23.92,15l-.67,1.64h1.34l-.67-1.64Z"/>
        <path class="cls-2" d="M31.08,18.76v-3.33l-1.41,2.18h-.03l-1.4-2.16v3.31h-1.09v-5.1h1.19l1.32,2.16,1.32-2.16h1.19v5.1h-1.09Z"/>
      </g>
      <g>
        <path class="cls-1" d="M21.82,5.64c0-.23-.02-.46-.04-.68,0-.06-.02-.19-.06-.37-.04-.21-.1-.41-.16-.61h0s0,0,0,0h-2.95l.07.31.05.03c.01.19-.05.37-.23.52-.26.22-.6.25-.91.06-.23-.13-.46-.26-.68-.41-.14-.1-.26-.09-.41,0-.99.56-1.9,1.24-2.79,1.95-.04.04-.08.08-.11.13-.11.19.02.41.24.39.1,0,.2-.06.28-.11.19-.12.37-.25.55-.38l.47-.32s.02-.01.04-.01c.04,0,.08.03.08.08s-.03.06-.03.06l-.61.42h0c-.1.07-.2.14-.3.21-.16.12-.17.26-.02.4.12.11.23.08.34,0,.31-.23.61-.47.92-.69,0,0,.11-.08.11-.08,0,0,.03-.02.05-.02.05,0,.09.04.09.09,0,.05-.03.07-.03.07,0,0-.1.08-.1.08-.24.19-.5.37-.75.56-.15.11-.15.23-.02.34.13.11.27.09.39,0,.16-.12.74-.54.74-.54,0,0,.03-.02.07-.02.06,0,.09.06.09.1s-.03.06-.03.06c0,0-.45.32-.52.37-.09.06-.2.12-.12.26.08.15.25.2.38.12.11-.07,1.69-.85,2.67-1.33h2.3c-.47,2.05-2.32,3.55-4.45,3.55-.86,0-1.68-.23-2.4-.68l.49-.5-2.17-.56.6,2.16.51-.52c.88.59,1.9.9,2.97.9,2.57,0,4.79-1.85,5.27-4.35h0s0-.03,0-.04c0,0,0,0,0,0,.03-.14.05-.32.05-.32h0c.03-.22.04-.44.04-.66Z"/>
        <g>
          <path class="cls-2" d="M18.24,3.84l-.97-.51s0,0,0,0c0,0-.01,0-.02-.01-.17-.09-.28-.12-.35-.14,0,0-.18-.05-.45.07-.54.23-1.06.49-1.6.73l-2.64-.03c.06-.16.13-.31.21-.46.78-1.45,2.31-2.43,4.03-2.43.8,0,1.57.21,2.26.6l-.47.52,2.19.47-.69-2.13-.48.54c-.84-.52-1.81-.79-2.81-.79-2.18,0-4.1,1.33-4.94,3.26h0s0,0,0,.01c-.03.08-.06.16-.09.23,0,0,0,0,0,0-.1.27-.18.54-.24.83-.04.17-.05.31-.06.37-.03.22-.04.45-.04.68,0,.35.03.69.1,1.02h1.82l.88-.67c.81-.61,1.62-1.22,2.5-1.73.04-.02.07-.04.11-.06.13-.06.27-.04.39.03l.86.49h0c.11.06.25.09.4.04.18-.06.31-.22.34-.4.03-.22-.08-.41-.25-.51Z"/>
          <path class="cls-3" d="M13,6.93h-1.82c-.13,0-.24-.09-.26-.22-.07-.35-.1-.72-.1-1.07,0-.23.02-.47.05-.71,0-.05.02-.19.06-.39.06-.29.14-.58.25-.87.03-.08.06-.17.1-.25.9-2.09,2.94-3.43,5.19-3.43.97,0,1.92.25,2.75.72l.34-.37c.06-.07.16-.1.25-.08.09.02.17.09.2.18l.69,2.13c.03.09,0,.19-.06.26-.06.07-.16.1-.25.08l-2.19-.47c-.09-.02-.17-.09-.2-.18s0-.19.06-.26l.24-.26c-.57-.27-1.19-.41-1.82-.41-1.59,0-3.04.88-3.8,2.29-.01.02-.02.05-.04.07l2.18.02c.16-.08.33-.15.49-.23.34-.16.7-.32,1.05-.48.34-.15.58-.09.63-.08.11.02.24.08.4.16,0,0,.01,0,.02,0,0,0,0,0,0,0l.97.51s0,0,0,0c.28.16.43.46.38.78-.04.28-.24.53-.52.62-.19.06-.39.05-.57-.04-.01,0-.03-.01-.04-.02l-.86-.49c-.05-.03-.11-.03-.15-.01-.03.01-.06.03-.08.04-.86.5-1.66,1.1-2.47,1.71l-.88.67s-.1.05-.16.05ZM11.4,6.39h1.51l.81-.62c.83-.63,1.64-1.23,2.52-1.75.05-.03.09-.05.13-.07.2-.09.44-.08.64.04l.83.47s.02,0,.03.01c.06.03.12.04.18.02.08-.03.15-.1.16-.19.02-.11-.05-.2-.11-.23l-.96-.5s-.01,0-.02,0c-.17-.09-.26-.12-.3-.12,0,0-.11-.02-.28.05-.35.15-.7.32-1.04.47-.18.09-.37.17-.55.25-.04.02-.08.02-.11.02l-2.64-.03c-.09,0-.17-.04-.22-.12s-.06-.16-.03-.25c.06-.17.14-.33.22-.49.85-1.59,2.49-2.57,4.27-2.57.84,0,1.66.22,2.39.63.07.04.12.11.13.19s-.01.16-.07.22l-.16.17,1.28.28-.4-1.25-.17.19c-.09.1-.23.12-.34.05-.8-.49-1.72-.75-2.67-.75-2.04,0-3.88,1.21-4.69,3.09,0,0,0,.01,0,.02-.03.07-.06.14-.09.22-.1.26-.17.52-.22.79-.03.17-.05.29-.05.34-.03.23-.04.44-.04.65,0,.25.02.5.06.75Z"/>
        </g>
        <path class="cls-2" d="M18.2,4.07c-.07-.03-.14-.07-.21-.12l-.73-.6s0,0,0,0c0,0-.01,0-.02-.01-.17-.09-.28-.12-.35-.14,0,0-.18-.05-.45.07-.54.23-1.06.49-1.6.73l-2.64-.03c.06-.16.13-.31.21-.46.78-1.45,2.31-2.43,4.03-2.43.8,0,1.57.21,2.26.6l-.47.52,2.19.47-.69-2.13-.48.54c-.84-.52-1.81-.79-2.81-.79-2.18,0-4.1,1.33-4.94,3.26h0s0,0,0,.01c-.03.08-.06.16-.09.23,0,0,0,0,0,0-.1.27-.18.54-.24.83-.04.17-.05.31-.06.37-.03.22-.04.45-.04.68,0,.35.03.69.1,1.02h1.82l.88-.67c.81-.61,1.62-1.22,2.5-1.73.03-.02.06-.04.1-.05.13-.06.28-.05.4.02l.87.49h0c.1.06.23.08.36.05s.25-.13.31-.26c.16-.29-.03-.36-.22-.44Z"/>
        <g>
          <g>
            <rect class="cls-4" x="17.95" y="6.18" width=".76" height="1.24" rx=".38" ry=".38" transform="translate(37.44 2.66) rotate(147.46)"/>
            <path class="cls-3" d="M18.46,7.57s-.09,0-.13-.01c-.15-.03-.28-.12-.36-.25l-.25-.4c-.08-.13-.11-.29-.08-.44.03-.15.12-.28.25-.36.13-.08.29-.11.44-.08.15.03.28.12.36.25l.25.4c.17.27.09.63-.18.8h0c-.09.06-.2.09-.31.09ZM18.2,6.41s-.07,0-.1.03c-.04.03-.07.07-.08.11-.01.05,0,.1.02.14l.25.4s.07.07.11.08c.05.01.1,0,.14-.02.08-.05.11-.17.05-.25l-.25-.4s-.07-.07-.11-.08c-.01,0-.03,0-.04,0Z"/>
          </g>
          <g>
            <rect class="cls-4" x="17.35" y="6.7" width=".67" height="1.09" rx=".34" ry=".34" transform="translate(36.5 3.84) rotate(147.46)"/>
            <path class="cls-3" d="M17.8,7.96s-.08,0-.12-.01c-.14-.03-.26-.11-.34-.23l-.22-.35c-.08-.12-.1-.26-.07-.4.03-.14.11-.26.23-.34.25-.16.58-.09.74.16l.22.35c.16.25.09.58-.16.74-.09.06-.19.08-.29.08ZM17.58,6.93s-.05,0-.07.02c-.03.02-.05.05-.06.08s0,.07.02.1l.22.35s.05.05.08.06.07,0,.1-.02c.06-.04.08-.12.04-.19l-.22-.35s-.07-.06-.11-.06Z"/>
          </g>
          <g>
            <rect class="cls-4" x="16.83" y="7.16" width=".59" height=".95" rx=".29" ry=".29" transform="translate(35.67 4.87) rotate(147.46)"/>
            <path class="cls-3" d="M17.22,8.28c-.16,0-.32-.08-.42-.23l-.2-.31c-.07-.11-.09-.24-.07-.37.03-.13.11-.24.22-.31.11-.07.24-.09.37-.07.13.03.24.11.31.22l.2.31c.15.23.08.53-.15.68-.08.05-.17.08-.26.08ZM17.02,7.39s-.03,0-.05.01c-.03.02-.04.04-.04.06,0,.01,0,.04.01.07l.2.31s.04.04.06.04c.01,0,.04,0,.07-.01.04-.03.06-.09.03-.13l-.2-.31s-.04-.04-.06-.04c0,0-.01,0-.02,0Z"/>
          </g>
          <g>
            <rect class="cls-4" x="16.37" y="7.57" width=".5" height=".81" rx=".25" ry=".25" transform="translate(34.92 5.76) rotate(147.46)"/>
            <path class="cls-3" d="M16.7,8.56c-.15,0-.29-.07-.38-.21l-.17-.26c-.13-.21-.07-.49.14-.62.1-.06.22-.09.34-.06.12.03.22.1.28.2l.17.26c.13.21.07.49-.14.62h0c-.07.05-.16.07-.24.07ZM16.54,7.8s-.02,0-.03,0c-.01,0-.02.02-.02.03s0,.02,0,.04l.17.26s.04.03.07.01c.02-.01.03-.05.01-.07l-.17-.26s-.02-.02-.03-.02c0,0,0,0-.01,0Z"/>
          </g>
        </g>
        <g>
          <rect class="cls-2" x="17.95" y="6.18" width=".76" height="1.24" rx=".38" ry=".38" transform="translate(37.44 2.66) rotate(147.46)"/>
          <rect class="cls-2" x="17.35" y="6.7" width=".67" height="1.09" rx=".34" ry=".34" transform="translate(36.5 3.84) rotate(147.46)"/>
          <rect class="cls-2" x="16.83" y="7.16" width=".59" height=".95" rx=".29" ry=".29" transform="translate(35.67 4.87) rotate(147.46)"/>
          <rect class="cls-2" x="16.37" y="7.57" width=".5" height=".81" rx=".25" ry=".25" transform="translate(34.92 5.76) rotate(147.46)"/>
        </g>
      </g>
    </g>
  </g>
</svg>